<?xml version="1.0" encoding="UTF-8" standalone="no"?>
<!-- Created with Inkscape (http://www.inkscape.org/) -->

<svg
   width="100"
   height="100"
   viewBox="0 0 26.458333 26.458333"
   version="1.1"
   id="svg1"
   xmlns:inkscape="http://www.inkscape.org/namespaces/inkscape"
   xmlns:sodipodi="http://sodipodi.sourceforge.net/DTD/sodipodi-0.dtd"
   xmlns="http://www.w3.org/2000/svg"
   xmlns:svg="http://www.w3.org/2000/svg">
  <sodipodi:namedview
     id="namedview1"
     pagecolor="#ffffff"
     bordercolor="#000000"
     borderopacity="0.25"
     inkscape:showpageshadow="2"
     inkscape:pageopacity="0.0"
     inkscape:pagecheckerboard="0"
     inkscape:deskcolor="#d1d1d1"
     inkscape:document-units="mm" />
  <defs
     id="defs1" />
  <g
     inkscape:label="Layer 1"
     inkscape:groupmode="layer"
     id="layer1">
    <path
       style="fill:#000000;fill-opacity:1;stroke:none;stroke-width:2.2879"
       d="m 12.578776,9.5143543 c 0,0 -3.4294821,2.6122747 -4.7719584,3.3444477 C 6.4643413,13.590975 5.5239448,14.234748 4.7070871,14.123168 3.8902253,14.011587 3.64433,13.916573 3.385041,13.360605 3.125732,12.804648 3.3051454,11.817332 3.6829107,11.035379 4.0606761,10.253427 4.7773968,9.247333 5.9331336,8.1296824 7.0888704,7.0120277 8.9100894,5.4807854 10.26302,4.5096248 c 1.352931,-0.9711565 2.979702,-1.7599683 4.42595,-2.3371672 1.446248,-0.5771989 2.828266,-0.8930461 4.076898,-1.1271642 1.248628,-0.23413807 2.231687,-0.10892657 2.942384,-0.014073 0.710702,0.094934 1.372907,0.6011676 1.372907,0.6011676 0,0 -1.730571,-0.3010462 -3.038556,-0.1121434 C 18.734618,1.709107 16.946254,2.1630406 15.393005,2.8253945 13.839752,3.4877485 12.01797,4.5860786 10.824976,5.5172672 9.6319853,6.4484597 8.7864783,7.3664356 8.1017882,8.1514637 7.417098,8.9364919 6.9172697,9.6591913 6.6648082,10.166869 6.4123347,10.674546 6.3556397,10.82143 6.4200951,11.064161 c 0.064455,0.242743 0.1157622,0.308284 0.4078579,0.407858 0.2921198,0.09956 0.7553256,-0.03739 1.2643659,-0.163129 0.5090403,-0.125814 1.0045864,-0.356776 1.7538004,-0.652575 0.7492097,-0.295819 2.7326567,-1.1420047 2.7326567,-1.1420047 z"
       id="path1"
       sodipodi:nodetypes="czzzzzzzzzczzzzzzzzzc"
       inkscape:export-filename="path2.png"
       inkscape:export-xdpi="96"
       inkscape:export-ydpi="96" />
    <path
       style="fill:#000000;fill-opacity:1;stroke:none;stroke-width:2.2879"
       d="m 21.140543,3.2175628 c 0,0 0.06642,-0.3206683 -0.0382,-0.463041 -0.104463,-0.1423405 -0.20945,-0.2455575 -0.538803,-0.3300772 -0.329354,-0.08448 -0.922918,-0.066104 -1.534495,0.016084 -0.611574,0.082147 -1.294286,0.2683964 -2.113769,0.5319596 -0.819484,0.2635712 -2.062708,0.772129 -2.739802,1.1680207 -0.677095,0.3958997 -1.062532,0.6737774 -1.369903,1.0526605 -0.307359,0.3788912 -0.50506,0.7220525 -0.519121,1.0814986 -0.01407,0.3594299 0.08163,0.6479791 0.274709,0.8583536 0.193044,0.2103745 0.483978,0.2770413 0.871474,0.3265791 0.387496,0.049497 0.879532,-0.098312 1.435006,-0.2764382 0.55547,-0.1781674 1.253872,-0.4522895 1.755019,-0.763384 C 17.123805,6.10868 17.679754,5.7194832 17.887394,5.3917341 18.095034,5.0639889 18.162907,4.9092479 18.040028,4.6885035 17.917149,4.467755 17.586183,4.4549685 17.317429,4.443348 17.048671,4.431687 16.762976,4.513795 16.482666,4.6163682 c -0.280298,0.1026138 -0.87962,0.4614406 -0.87962,0.4614406 0,0 0.551863,-0.1851231 0.784955,-0.2352639 0.233093,-0.050101 0.479246,-0.09035 0.593396,0.060475 0.114153,0.1507845 0.02614,0.2405716 -0.161239,0.4098804 -0.187496,0.1692807 -0.605137,0.3432659 -1.001832,0.4902787 -0.396704,0.1470048 -0.9387,0.3314444 -1.321391,0.3511871 -0.382711,0.019703 -0.689125,0.031363 -0.826166,-0.1969446 -0.137033,-0.2281872 0.02573,-0.5071224 0.25955,-0.7422697 0.233616,-0.2351434 0.619495,-0.478035 1.067084,-0.7429895 0.447588,-0.2649383 1.084003,-0.5606488 1.629461,-0.7642601 0.545458,-0.2036193 1.00798,-0.412309 1.603973,-0.5583086 0.595989,-0.1459996 1.535697,-0.4068808 2.206712,-0.3374757 0.671011,0.069401 0.702781,0.4055096 0.702781,0.4055096 z"
       id="path2"
       sodipodi:nodetypes="czzzzzzzzzzzzzzzczzzzzzzzzzzc" />
    <path
       style="fill:#000000;fill-opacity:1;stroke:none;stroke-width:2.2879"
       d="m 23.361224,1.9197589 c 0,0 0.174789,0.5374642 0.01005,1.1317601 -0.164616,0.5942998 -0.321472,1.0030263 -1.394535,2.1848468 -1.073067,1.1818164 -3.743303,3.0041372 -5.445514,4.2482295 -1.702216,1.2440927 -2.805472,1.8773677 -4.763852,3.2213397 -1.9583807,1.343968 -5.212165,3.734557 -6.4890078,5.162361 -1.2768469,1.427808 -1.604785,2.043777 -1.9768688,2.986268 -0.3720959,0.942492 -0.4309903,1.846997 -0.3338167,2.530626 0.097145,0.683629 0.3488951,1.025592 0.6685663,1.369477 0.319663,0.343869 0.7422576,0.441593 1.2960548,0.583198 0.5537931,0.141617 1.4035701,0.09988 2.0683326,-0.01528 0.6647665,-0.115038 1.2613341,-0.324689 1.8827511,-0.705856 0.6214128,-0.381183 1.5285205,-1.5862 1.5285205,-1.5862 0,0 -1.0556081,0.55198 -1.6065947,0.697408 C 8.2543258,23.873374 7.5310509,24.133101 6.9610012,24.0283 6.3909474,23.923475 5.8777455,23.719091 5.5548375,23.367032 5.2319175,23.015 5.1238352,22.543089 5.134181,21.949774 c 0.010454,-0.593315 0.524923,-1.413437 1.2284753,-2.293809 0.7035562,-0.880369 1.7294455,-1.762068 3.133369,-3.009558 1.4039207,-1.24749 3.6001137,-2.938922 5.2130457,-4.228989 1.612931,-1.290068 3.165094,-2.368857 4.326006,-3.3454413 1.160908,-0.9765847 1.952675,-1.677451 2.682122,-2.4514015 0.729443,-0.7739465 1.224382,-1.3475145 1.546864,-1.9200331 0.322477,-0.5725226 0.430519,-1.0082455 0.434351,-1.4612462 0.0038,-0.4530008 -0.337315,-1.3196456 -0.337315,-1.3196456 z"
       id="path3"
       sodipodi:nodetypes="czzzzzzzzzzzczzzzzzzzzzzc" />
    <path
       style="fill:#000000;fill-opacity:1;stroke:none;stroke-width:2.2879"
       d="m 23.945262,4.3061221 c 0,0 -0.483567,1.5308885 -0.880818,2.2296559 -0.397267,0.6987674 -0.810911,1.005853 -1.708062,1.9210383 -0.897156,0.9151894 -1.321664,1.106352 -2.255953,1.9218187 -0.934285,0.815462 -2.138494,1.543514 -2.947334,2.102349 -0.80884,0.558836 -1.684636,1.152601 -3.247254,2.410119 -1.562621,1.257522 -3.7663059,3.801791 -3.7663059,3.801791 0,0 2.3997809,-1.867958 3.1673819,-2.195518 0.767606,-0.327544 1.222307,-0.648968 1.931714,-0.555309 0.709403,0.09365 0.907819,0.446989 1.181165,0.830565 0.273342,0.383555 0.109048,1.244691 0.135948,2.068562 0.02694,0.823874 0.101729,1.801834 0.338641,2.735133 0.236953,0.9333 1.461299,2.427365 1.461299,2.427365 0,0 -0.455799,-1.33624 -0.520319,-2.610228 -0.06454,-1.273988 0.01809,-2.500589 0.244713,-3.490701 0.226619,-0.990111 0.394452,-1.865183 0.925704,-3.021909 0.531244,-1.156722 1.173939,-2.037476 2.018232,-3.069618 0.844296,-1.032138 2.315929,-2.6017881 3.212268,-4.1248278 0.896339,-1.5230397 0.70898,-3.3802861 0.70898,-3.3802861 z"
       id="path4"
       sodipodi:nodetypes="czzzzzczzzzzczzzzzc" />
  </g>
</svg>
